<?xml version="1.0" encoding="UTF-8"?>
<svg id="Capa_2" data-name="Capa 2" xmlns="http://www.w3.org/2000/svg" viewBox="0 0 86.07 133.18">
  <defs>
    <style>
      .cls-1 {
        fill: #fff;
      }
    </style>
  </defs>
  <g id="Capa_1-2" data-name="Capa 1">
    <path class="cls-1" d="M28.19,15.29c1.27-.29,2.03-.58,2.81-.63,16.65-1.17,33.28-1.51,49.81,1.5,1.81,.33,3.72,.69,4.83-1.22,1.09-1.87-.09-3.46-1.21-4.88-3.29-4.17-7.62-6.61-12.84-7.56C56.57-.22,41.41-.28,26.24,.29c-7.39,.28-14.75,1.17-21.22,5.29-3.63,2.31-3.79,3.8-.92,7.04,2.91,3.28,6.6,5.43,10.43,7.4,9.23,4.73,19.13,7.96,28.41,12.59,1.14,.57,2.55,.8,3.53,2.21-14.12-.06-27.79,1.65-41.47,3.14-1.68,.18-3.86-.14-4.73,1.89-.93,2.19,.61,3.83,1.87,5.33,2.85,3.38,6.54,5.47,10.8,6.6,2.69,.71,5.4,1.38,8.05,2.24,12.53,4.07,24.19,10.29,36.56,14.77,1.8,.65,3.25,1.78,4.63,3.15,2.88,2.85,6.33,4.83,10.46,5.33,1.31,.16,2.69,.06,3.58-1.01,1.02-1.23,.2-2.49-.42-3.6-2.43-4.39-6.06-7.61-10.24-10.28-6.28-3.99-13.28-6.35-20.16-8.99-2.62-1-5.39-1.71-8.2-3.51,.94-.19,1.4-.34,1.88-.37,11.45-.81,22.89-1.42,34.35,.19,2.19,.31,5.25,1.52,6.53-1.16,1.22-2.55-1.01-4.69-2.65-6.53-3.92-4.38-8.77-7.54-14.02-10.05-11.49-5.51-23.03-10.92-35.12-16.65Zm-3.14,115.87c.08,.47-.46,1.47,.37,1.91,.8,.42,1.45-.43,2.09-.85,2.53-1.62,4.76-3.57,6.79-5.79,4.37-4.79,6.9-10.66,9.84-16.3,2.36-4.52,6.11-6.75,10.38-5.9,2.35,.47,3.56-.19,4.39-2.24,.26-.64,.62-1.26,1.05-1.8,1.39-1.78,1.24-2.91-.94-4.09-5.51-2.99-10.88-6.25-16.3-9.4-4.17-2.42-4.11-2.39-6.64,1.79-1.11,1.83-1.64,3.13,.12,5.15,2.77,3.15,2.63,6.98,.71,10.62-.97,1.84-2.24,3.52-3.43,5.24-4.47,6.48-7.89,13.37-8.42,21.66Zm33.66-54.45c.93-2.14-.06-3.02-1.67-3.84-2.29-1.16-4.46-2.53-6.66-3.86-1.43-.87-2.52-.9-3.41,.79-1.31,2.46-2.7,4.88-4.2,7.23-.89,1.4-.45,2.08,.82,2.81,6.48,3.72,12.94,7.45,19.36,11.27,1.39,.83,2.07,.55,2.79-.79,1.22-2.28,2.59-4.48,3.87-6.73,.62-1.08,1.61-2.09,.04-3.34-1.4-1.12-2.45-.85-3.87,.98,1.54-3.84-1.53-3.79-2.94-4.91-1.25-.98-2.73-1.98-4.13,.38Zm5.11,16.84c-.13-1.01-.87-1.23-1.45-1.56-6.47-3.76-12.98-7.44-19.39-11.3-1.68-1.01-2.13-.26-2.94,.96-.96,1.43-.42,2.03,.84,2.74,6.5,3.71,12.96,7.48,19.44,11.22,.56,.32,1.19,1.16,1.8,.55,.75-.75,1.2-1.8,1.71-2.61Z"/>
  </g>
</svg>